G75*
G70*
%OFA0B0*%
%FSLAX24Y24*%
%IPPOS*%
%LPD*%
%AMOC8*
5,1,8,0,0,1.08239X$1,22.5*
%
%ADD10C,0.0000*%
%ADD11R,0.0787X0.0787*%
%ADD12C,0.0640*%
%ADD13R,0.0433X0.0394*%
%ADD14R,0.0630X0.0709*%
%ADD15R,0.0472X0.0217*%
%ADD16R,0.0512X0.0512*%
%ADD17R,0.0394X0.0433*%
%ADD18C,0.0100*%
%ADD19C,0.0160*%
%ADD20C,0.0436*%
%ADD21C,0.0240*%
%ADD22R,0.0436X0.0436*%
D10*
X000151Y000554D02*
X000151Y005554D01*
X008151Y005554D01*
X008151Y000554D01*
X000151Y000554D01*
D11*
X003143Y001824D03*
X003143Y003399D03*
D12*
X001151Y002554D03*
X001151Y001554D03*
X001151Y004554D03*
X007151Y004554D03*
X007151Y001554D03*
D13*
X006520Y003359D03*
X005851Y003359D03*
X002917Y001115D03*
X002248Y001115D03*
X001986Y003554D03*
X001317Y003554D03*
D14*
X006145Y002611D03*
X007248Y002611D03*
D15*
X005338Y002424D03*
X005338Y002798D03*
X004315Y002798D03*
X004315Y002424D03*
X004315Y002050D03*
X005338Y002050D03*
D16*
X005417Y003920D03*
X004236Y003920D03*
D17*
X002151Y002889D03*
X002151Y002220D03*
D18*
X002151Y001733D01*
X002248Y001637D01*
X002248Y001115D01*
X002917Y001115D02*
X002956Y001155D01*
X002956Y001302D01*
X003143Y001489D01*
X003143Y001824D01*
X003291Y001863D01*
X003704Y002424D02*
X004078Y002050D01*
X004315Y002050D01*
X004315Y002424D02*
X004078Y002424D01*
X003704Y002798D01*
X002395Y002798D01*
X002305Y002889D01*
X002151Y002889D01*
X002582Y002424D02*
X002378Y002220D01*
X002151Y002220D01*
X002582Y002424D02*
X003704Y002424D01*
X004826Y002985D02*
X004830Y002985D01*
X004969Y002847D01*
X004969Y002197D01*
X005115Y002050D01*
X005338Y002050D01*
X004826Y002985D02*
X004826Y004107D01*
X004624Y004310D01*
X002224Y004310D01*
X001986Y004072D01*
X001986Y003554D01*
X001986Y003389D01*
X001151Y002554D01*
X001317Y003554D02*
X001317Y003877D01*
X001151Y004043D01*
X001151Y004554D01*
X003143Y003399D02*
X003330Y003733D01*
D19*
X004236Y003920D02*
X004236Y002877D01*
X004315Y002798D01*
X004315Y002424D02*
X004656Y002424D01*
X004733Y002347D01*
X004733Y001897D01*
X004833Y001797D01*
X005338Y002424D02*
X005574Y002424D01*
D20*
X004833Y001797D03*
D21*
X005594Y001302D02*
X006145Y001854D01*
X006444Y001554D01*
X007151Y001554D01*
X006145Y001854D02*
X006145Y002611D01*
X005948Y002611D01*
X005761Y002424D01*
X005574Y002424D01*
X005338Y002798D02*
X005338Y003310D01*
X005387Y003359D01*
X005851Y003359D01*
X005387Y003359D02*
X005387Y003891D01*
X005417Y003920D01*
X005417Y004452D01*
X005200Y004669D01*
X001265Y004669D01*
X001151Y004554D01*
X003330Y003733D02*
X003517Y003920D01*
X004236Y003920D01*
X006520Y003359D02*
X007070Y003359D01*
X007257Y003172D01*
X007257Y002621D01*
X007248Y002611D01*
X007257Y002611D01*
X007248Y002611D01*
X005594Y001302D02*
X003704Y001302D01*
X003291Y001716D01*
X003291Y001863D01*
D22*
X007257Y002611D03*
M02*
